# xmcd CD database file
#
# Track frame offsets:
#	150
#	14877
#	28572
#	43290
#	56484
#	74593
#	89307
#	99192
#	112894
#	122497
#	137152
#	155603
#	173313
#	192702
#	204765
#
# Disc length: 2967 seconds
#
# Revision: 0
# Processed by: cddbd v1.5.1PL0 Copyright (c) Steve Scherf et al.
# Submitted via: CDex 1.51
#
DISCID=ca0b950f
DTITLE=Brother Yusef - Blues By Request
DYEAR=2003
DGENRE=Blues
TTITLE0=Everyday I Have The Blues
TTITLE1=Where You Want Me To Go
TTITLE2=Got My Mojo Workin'
TTITLE3=This Train
TTITLE4=Red Rooster
TTITLE5=Down Home Blues
TTITLE6=O.C. Shuffle
TTITLE7=How Blue Can You Get
TTITLE8=Early Sunday Mornin'
TTITLE9=The Thrill Is Gone
TTITLE10=You Dont Have To Go
TTITLE11=I Got The Blues
TTITLE12=5 Long Years
TTITLE13=Watch Out
TTITLE14=Red House
EXTD=YEAR: 2003
EXTT0=
EXTT1=
EXTT2=
EXTT3=
EXTT4=
EXTT5=
EXTT6=
EXTT7=
EXTT8=
EXTT9=
EXTT10=
EXTT11=
EXTT12=
EXTT13=
EXTT14=
PLAYORDER=
